<svg xmlns="http://www.w3.org/2000/svg" version="1.1" xmlns:xlink="http://www.w3.org/1999/xlink" xmlns:svgjs="http://svgjs.dev/svgjs" viewBox="0 0 800 800"><defs><linearGradient x1="50%" y1="0%" x2="50%" y2="100%" id="nnneon-grad"><stop stop-color="hsl(162, 100%, 58%)" stop-opacity="1" offset="0%"></stop><stop stop-color="hsl(270, 73%, 53%)" stop-opacity="1" offset="100%"></stop></linearGradient><filter id="nnneon-filter" x="-100%" y="-100%" width="400%" height="400%" filterUnits="objectBoundingBox" primitiveUnits="userSpaceOnUse" color-interpolation-filters="sRGB">
	<feGaussianBlur stdDeviation="50 59" x="0%" y="0%" width="100%" height="100%" in="SourceGraphic" edgeMode="none" result="blur"></feGaussianBlur></filter><filter id="nnneon-filter2" x="-100%" y="-100%" width="400%" height="400%" filterUnits="objectBoundingBox" primitiveUnits="userSpaceOnUse" color-interpolation-filters="sRGB">
	<feGaussianBlur stdDeviation="10 17" x="0%" y="0%" width="100%" height="100%" in="SourceGraphic" edgeMode="none" result="blur"></feGaussianBlur></filter></defs><g stroke-width="30.5" stroke="url(#nnneon-grad)" fill="none" transform="rotate(30, 400, 400)"><path d="M390.14656914497493 257.8869190364002C396.24387215806445 254.36727353498523 403.75612784193555 254.36727353498523 409.85343085502507 257.8879043794857L518.1465773240924 320.4108791838761C524.2438803371818 323.93052468529106 528.0000081791175 330.4367450788641 528.0000081791175 337.47702142477954V462.52297103356034C528.0000081791175 469.5632473794758 524.2438803371818 476.06946777304887 518.1465773240924 479.5900986175493L409.85343085502507 542.1130734219398C403.75612784193555 545.6327189233547 396.24387215806445 545.6327189233547 390.14656914497493 542.1120880788542L281.85342267590767 479.5891132744638C275.75611966281815 476.06946777304887 271.9999918208826 469.5632473794758 271.9999918208826 462.52297103356034V337.47702142477954C271.9999918208826 330.4367450788641 275.75611966281815 323.93052468529106 281.85342267590767 320.40989384079063L390.14656914497493 257.8869190364002Z " filter="url(#nnneon-filter)"></path><path d="M530.1465691449749 257.8869190364002C536.2438721580645 254.36727353498523 543.7561278419355 254.36727353498523 549.8534308550251 257.8879043794857L658.1465773240924 320.4108791838761C664.2438803371818 323.93052468529106 668.0000081791175 330.4367450788641 668.0000081791175 337.47702142477954V462.52297103356034C668.0000081791175 469.5632473794758 664.2438803371818 476.06946777304887 658.1465773240924 479.5900986175493L549.8534308550251 542.1130734219398C543.7561278419355 545.6327189233547 536.2438721580645 545.6327189233547 530.1465691449749 542.1120880788542L421.85342267590767 479.5891132744638C415.75611966281815 476.06946777304887 411.9999918208826 469.5632473794758 411.9999918208826 462.52297103356034V337.47702142477954C411.9999918208826 330.4367450788641 415.75611966281815 323.93052468529106 421.85342267590767 320.40989384079063L530.1465691449749 257.8869190364002Z " filter="url(#nnneon-filter2)" opacity="0.48"></path><path d="M250.14656914497493 257.8869190364002C256.24387215806445 254.36727353498523 263.75612784193555 254.36727353498523 269.85343085502507 257.8879043794857L378.1465773240924 320.4108791838761C384.24388033718185 323.93052468529106 388.00000817911746 330.4367450788641 388.00000817911746 337.47702142477954V462.52297103356034C388.00000817911746 469.5632473794758 384.24388033718185 476.06946777304887 378.1465773240924 479.5900986175493L269.85343085502507 542.1130734219398C263.75612784193555 545.6327189233547 256.24387215806445 545.6327189233547 250.14656914497493 542.1120880788542L141.85342267590767 479.5891132744638C135.75611966281815 476.06946777304887 131.9999918208826 469.5632473794758 131.9999918208826 462.52297103356034V337.47702142477954C131.9999918208826 330.4367450788641 135.75611966281815 323.93052468529106 141.85342267590767 320.40989384079063L250.14656914497493 257.8869190364002Z " filter="url(#nnneon-filter2)" opacity="0.48"></path><path d="M390.14656914497493 257.8869190364002C396.24387215806445 254.36727353498523 403.75612784193555 254.36727353498523 409.85343085502507 257.8879043794857L518.1465773240924 320.4108791838761C524.2438803371818 323.93052468529106 528.0000081791175 330.4367450788641 528.0000081791175 337.47702142477954V462.52297103356034C528.0000081791175 469.5632473794758 524.2438803371818 476.06946777304887 518.1465773240924 479.5900986175493L409.85343085502507 542.1130734219398C403.75612784193555 545.6327189233547 396.24387215806445 545.6327189233547 390.14656914497493 542.1120880788542L281.85342267590767 479.5891132744638C275.75611966281815 476.06946777304887 271.9999918208826 469.5632473794758 271.9999918208826 462.52297103356034V337.47702142477954C271.9999918208826 330.4367450788641 275.75611966281815 323.93052468529106 281.85342267590767 320.40989384079063L390.14656914497493 257.8869190364002Z "></path></g></svg>